<svg xmlns="http://www.w3.org/2000/svg" xmlns:xlink="http://www.w3.org/1999/xlink" width="203" zoomAndPan="magnify" viewBox="0 0 152.25 147.000002" height="196" preserveAspectRatio="xMidYMid meet" version="1.0"><defs><filter x="0%" y="0%" width="100%" height="100%" id="f576ee6f37"><feColorMatrix values="0 0 0 0 1 0 0 0 0 1 0 0 0 0 1 0 0 0 1 0" color-interpolation-filters="sRGB"/></filter><g/><mask id="5945b39627"><g filter="url(#f576ee6f37)"><rect x="-15.225" width="182.7" fill="#000000" y="-14.7" height="176.400002" fill-opacity="0.57"/></g></mask><clipPath id="403d1ff22a"><rect x="0" width="69" y="0" height="110"/></clipPath><clipPath id="8c478ec9df"><rect x="0" width="71" y="0" height="110"/></clipPath></defs><g mask="url(#5945b39627)"><g transform="matrix(1, 0, 0, 1, 42, 18)"><g clip-path="url(#403d1ff22a)"><g fill="#000000" fill-opacity="1"><g transform="translate(1.186861, 83.603275)"><g><path d="M 36.828125 1.078125 C 30.210938 1.078125 24.453125 -0.242188 19.546875 -2.890625 C 14.640625 -5.535156 10.890625 -9.113281 8.296875 -13.625 C 5.710938 -18.144531 4.421875 -23.113281 4.421875 -28.53125 C 4.421875 -34.363281 5.894531 -39.460938 8.84375 -43.828125 C 11.789062 -48.191406 15.835938 -51.546875 20.984375 -53.890625 C 26.128906 -56.242188 31.894531 -57.421875 38.28125 -57.421875 C 41.46875 -57.421875 44.472656 -57.117188 47.296875 -56.515625 C 50.128906 -55.910156 52.476562 -55.035156 54.34375 -53.890625 C 54.832031 -53.648438 55.101562 -53.441406 55.15625 -53.265625 C 55.21875 -53.085938 55.28125 -52.632812 55.34375 -51.90625 L 56.421875 -41.265625 C 56.421875 -41.078125 56.253906 -40.953125 55.921875 -40.890625 C 55.597656 -40.835938 55.40625 -40.929688 55.34375 -41.171875 C 52.570312 -51.035156 46.3125 -55.96875 36.5625 -55.96875 C 31.8125 -55.96875 27.523438 -54.898438 23.703125 -52.765625 C 19.878906 -50.628906 16.867188 -47.585938 14.671875 -43.640625 C 12.472656 -39.703125 11.375 -35.117188 11.375 -29.890625 C 11.375 -24.765625 12.425781 -19.945312 14.53125 -15.4375 C 16.632812 -10.925781 19.789062 -7.269531 24 -4.46875 C 28.21875 -1.664062 33.304688 -0.265625 39.265625 -0.265625 C 43.546875 -0.265625 46.554688 -1.09375 48.296875 -2.75 C 50.046875 -4.40625 50.921875 -7.25 50.921875 -11.28125 C 50.921875 -14.414062 50.722656 -16.597656 50.328125 -17.828125 C 49.941406 -19.066406 49.070312 -19.894531 47.71875 -20.3125 C 46.363281 -20.726562 44 -20.9375 40.625 -20.9375 C 40.257812 -20.9375 40.078125 -21.179688 40.078125 -21.671875 C 40.078125 -21.847656 40.125 -22.007812 40.21875 -22.15625 C 40.3125 -22.3125 40.414062 -22.390625 40.53125 -22.390625 C 45.226562 -22.085938 49.019531 -21.9375 51.90625 -21.9375 C 54.675781 -21.9375 57.65625 -22.023438 60.84375 -22.203125 C 60.96875 -22.203125 61.070312 -22.125 61.15625 -21.96875 C 61.25 -21.820312 61.296875 -21.691406 61.296875 -21.578125 C 61.296875 -21.148438 61.144531 -20.9375 60.84375 -20.9375 C 59.34375 -21 58.304688 -20.804688 57.734375 -20.359375 C 57.160156 -19.910156 56.78125 -19.007812 56.59375 -17.65625 C 56.414062 -16.300781 56.328125 -13.875 56.328125 -10.375 C 56.328125 -7.664062 56.429688 -5.738281 56.640625 -4.59375 C 56.859375 -3.457031 56.96875 -2.738281 56.96875 -2.4375 C 56.96875 -2.070312 56.90625 -1.828125 56.78125 -1.703125 C 56.664062 -1.585938 56.394531 -1.472656 55.96875 -1.359375 C 48.507812 0.265625 42.128906 1.078125 36.828125 1.078125 Z M 36.828125 1.078125 "/></g></g></g></g></g></g><g transform="matrix(1, 0, 0, 1, 18, 17)"><g clip-path="url(#8c478ec9df)"><g fill="#000000" fill-opacity="1"><g transform="translate(2.500604, 82.412591)"><g><path d="M 63.078125 -1.078125 C 63.316406 -1.078125 63.4375 -0.894531 63.4375 -0.53125 C 63.4375 -0.175781 63.316406 0 63.078125 0 C 61.929688 0 60.15625 -0.0625 57.75 -0.1875 C 55.34375 -0.300781 53.597656 -0.359375 52.515625 -0.359375 C 51.191406 -0.359375 49.507812 -0.300781 47.46875 -0.1875 C 45.539062 -0.0625 44.066406 0 43.046875 0 C 42.804688 0 42.6875 -0.175781 42.6875 -0.53125 C 42.6875 -0.894531 42.804688 -1.078125 43.046875 -1.078125 C 45.265625 -1.078125 46.882812 -1.285156 47.90625 -1.703125 C 48.9375 -2.128906 49.453125 -2.851562 49.453125 -3.875 C 49.453125 -4.71875 49.0625 -6.015625 48.28125 -7.765625 L 40.25 -24.8125 L 18.765625 -24.8125 L 13.078125 -11.453125 C 12.242188 -9.410156 11.828125 -7.757812 11.828125 -6.5 C 11.828125 -4.632812 12.5625 -3.265625 14.03125 -2.390625 C 15.5 -1.515625 17.707031 -1.078125 20.65625 -1.078125 C 20.957031 -1.078125 21.109375 -0.894531 21.109375 -0.53125 C 21.109375 -0.175781 20.957031 0 20.65625 0 C 19.582031 0 18.019531 -0.0625 15.96875 -0.1875 C 13.6875 -0.300781 11.703125 -0.359375 10.015625 -0.359375 C 8.453125 -0.359375 6.648438 -0.300781 4.609375 -0.1875 C 2.796875 -0.0625 1.289062 0 0.09375 0 C -0.207031 0 -0.359375 -0.175781 -0.359375 -0.53125 C -0.359375 -0.894531 -0.207031 -1.078125 0.09375 -1.078125 C 1.769531 -1.078125 3.195312 -1.394531 4.375 -2.03125 C 5.550781 -2.664062 6.664062 -3.78125 7.71875 -5.375 C 8.769531 -6.96875 9.925781 -9.265625 11.1875 -12.265625 L 30.234375 -57.203125 C 30.347656 -57.390625 30.554688 -57.484375 30.859375 -57.484375 C 31.160156 -57.484375 31.34375 -57.390625 31.40625 -57.203125 L 52.703125 -12.359375 C 54.742188 -7.910156 56.484375 -4.914062 57.921875 -3.375 C 59.367188 -1.84375 61.085938 -1.078125 63.078125 -1.078125 Z M 19.484375 -26.625 L 39.4375 -26.625 L 28.875 -48.90625 Z M 19.484375 -26.625 "/></g></g></g></g></g></svg>
